<svg xmlns="http://www.w3.org/2000/svg" width="940" height="316" viewBox="0 0 940 316">
<rect width="100%" height="100%" fill="#ffffff"/>
<text x="24" y="34" font-family="Arial" font-size="22" font-weight="700" fill="#1f2937">Casos por faixa etaria no Para em 2026</text>
<text x="24" y="78" font-family="Arial" font-size="14" fill="#374151">&lt;1</text>
<rect x="190" y="58" width="28" height="28" rx="4" fill="#0f766e"/>
<text x="226" y="78" font-family="Arial" font-size="13" fill="#111827">119</text>
<text x="24" y="116" font-family="Arial" font-size="14" fill="#374151">1-9</text>
<rect x="190" y="96" width="177.6" height="28" rx="4" fill="#0f766e"/>
<text x="375.6" y="116" font-family="Arial" font-size="13" fill="#111827">755</text>
<text x="24" y="154" font-family="Arial" font-size="14" fill="#374151">10-19</text>
<rect x="190" y="134" width="351.6" height="28" rx="4" fill="#0f766e"/>
<text x="549.6" y="154" font-family="Arial" font-size="13" fill="#111827">1.495</text>
<text x="24" y="192" font-family="Arial" font-size="14" fill="#374151">20-39</text>
<rect x="190" y="172" width="700" height="28" rx="4" fill="#0f766e"/>
<text x="898" y="192" font-family="Arial" font-size="13" fill="#111827">2.976</text>
<text x="24" y="230" font-family="Arial" font-size="14" fill="#374151">40-59</text>
<rect x="190" y="210" width="375.4" height="28" rx="4" fill="#0f766e"/>
<text x="573.4" y="230" font-family="Arial" font-size="13" fill="#111827">1.596</text>
<text x="24" y="268" font-family="Arial" font-size="14" fill="#374151">60+</text>
<rect x="190" y="248" width="140" height="28" rx="4" fill="#0f766e"/>
<text x="338" y="268" font-family="Arial" font-size="13" fill="#111827">595</text>
</svg>
