<svg xmlns="http://www.w3.org/2000/svg" width="920" height="392" viewBox="0 0 920 392">
<rect width="100%" height="100%" fill="#ffffff"/>
<text x="24" y="34" font-family="Arial" font-size="22" font-weight="700" fill="#1f2937">Casos notificados por ano</text>
<text x="24" y="78" font-family="Arial" font-size="14" fill="#374151">2019</text>
<rect x="190" y="58" width="0.6" height="28" rx="4" fill="#2563eb"/>
<text x="198.6" y="78" font-family="Arial" font-size="13" fill="#111827">5.653</text>
<text x="24" y="116" font-family="Arial" font-size="14" fill="#374151">2020</text>
<rect x="190" y="96" width="156.4" height="28" rx="4" fill="#2563eb"/>
<text x="354.4" y="116" font-family="Arial" font-size="13" fill="#111827">1.488.317</text>
<text x="24" y="154" font-family="Arial" font-size="14" fill="#374151">2021</text>
<rect x="190" y="134" width="107.6" height="28" rx="4" fill="#2563eb"/>
<text x="305.6" y="154" font-family="Arial" font-size="13" fill="#111827">1.024.316</text>
<text x="24" y="192" font-family="Arial" font-size="14" fill="#374151">2022</text>
<rect x="190" y="172" width="147.8" height="28" rx="4" fill="#2563eb"/>
<text x="345.8" y="192" font-family="Arial" font-size="13" fill="#111827">1.406.552</text>
<text x="24" y="230" font-family="Arial" font-size="14" fill="#374151">2023</text>
<rect x="190" y="210" width="172.9" height="28" rx="4" fill="#2563eb"/>
<text x="370.9" y="230" font-family="Arial" font-size="13" fill="#111827">1.645.563</text>
<text x="24" y="268" font-family="Arial" font-size="14" fill="#374151">2024</text>
<rect x="190" y="248" width="690" height="28" rx="4" fill="#2563eb"/>
<text x="888" y="268" font-family="Arial" font-size="13" fill="#111827">6.567.131</text>
<text x="24" y="306" font-family="Arial" font-size="14" fill="#374151">2025</text>
<rect x="190" y="286" width="171.9" height="28" rx="4" fill="#2563eb"/>
<text x="369.9" y="306" font-family="Arial" font-size="13" fill="#111827">1.636.138</text>
<text x="24" y="344" font-family="Arial" font-size="14" fill="#374151">2026</text>
<rect x="190" y="324" width="40.9" height="28" rx="4" fill="#2563eb"/>
<text x="238.9" y="344" font-family="Arial" font-size="13" fill="#111827">388.875</text>
</svg>
