<svg xmlns="http://www.w3.org/2000/svg" width="920" height="468" viewBox="0 0 920 468">
<rect width="100%" height="100%" fill="#ffffff"/>
<text x="24" y="34" font-family="Arial" font-size="22" font-weight="700" fill="#1f2937">Sintomas mais registrados em 2026</text>
<text x="24" y="78" font-family="Arial" font-size="14" fill="#374151">FEBRE</text>
<rect x="190" y="58" width="690" height="28" rx="4" fill="#2563eb"/>
<text x="888" y="78" font-family="Arial" font-size="13" fill="#111827">325.110</text>
<text x="24" y="116" font-family="Arial" font-size="14" fill="#374151">MIALGIA</text>
<rect x="190" y="96" width="625.8" height="28" rx="4" fill="#2563eb"/>
<text x="823.8" y="116" font-family="Arial" font-size="13" fill="#111827">294.861</text>
<text x="24" y="154" font-family="Arial" font-size="14" fill="#374151">CEFALEIA</text>
<rect x="190" y="134" width="623.2" height="28" rx="4" fill="#2563eb"/>
<text x="821.2" y="154" font-family="Arial" font-size="13" fill="#111827">293.645</text>
<text x="24" y="192" font-family="Arial" font-size="14" fill="#374151">NAUSEA</text>
<rect x="190" y="172" width="329.5" height="28" rx="4" fill="#2563eb"/>
<text x="527.5" y="192" font-family="Arial" font-size="13" fill="#111827">155.244</text>
<text x="24" y="230" font-family="Arial" font-size="14" fill="#374151">VOMITO</text>
<rect x="190" y="210" width="231.8" height="28" rx="4" fill="#2563eb"/>
<text x="429.8" y="230" font-family="Arial" font-size="13" fill="#111827">109.202</text>
<text x="24" y="268" font-family="Arial" font-size="14" fill="#374151">DOR_RETRO</text>
<rect x="190" y="248" width="228.9" height="28" rx="4" fill="#2563eb"/>
<text x="426.9" y="268" font-family="Arial" font-size="13" fill="#111827">107.867</text>
<text x="24" y="306" font-family="Arial" font-size="14" fill="#374151">DOR_COSTAS</text>
<rect x="190" y="286" width="204.9" height="28" rx="4" fill="#2563eb"/>
<text x="402.9" y="306" font-family="Arial" font-size="13" fill="#111827">96.528</text>
<text x="24" y="344" font-family="Arial" font-size="14" fill="#374151">ARTRALGIA</text>
<rect x="190" y="324" width="147" height="28" rx="4" fill="#2563eb"/>
<text x="345" y="344" font-family="Arial" font-size="13" fill="#111827">69.265</text>
<text x="24" y="382" font-family="Arial" font-size="14" fill="#374151">EXANTEMA</text>
<rect x="190" y="362" width="75.1" height="28" rx="4" fill="#2563eb"/>
<text x="273.1" y="382" font-family="Arial" font-size="13" fill="#111827">35.362</text>
<text x="24" y="420" font-family="Arial" font-size="14" fill="#374151">PETEQUIA_N</text>
<rect x="190" y="400" width="53.2" height="28" rx="4" fill="#2563eb"/>
<text x="251.2" y="420" font-family="Arial" font-size="13" fill="#111827">25.086</text>
</svg>
